# This file uses centimeters as units for non-parametric coordinates.

mtllib SwordMesh.mtl
g default
v -0.145728 3.467575 0.044796
v 0.145728 3.467575 0.044796
v -0.145728 3.642706 0.044796
v 0.145728 3.642706 0.044796
v -0.145728 3.642706 -0.044796
v 0.145728 3.642706 -0.044796
v -0.145728 3.467575 -0.044796
v 0.145728 3.467575 -0.044796
v 0.302513 3.549891 -0.019768
v 0.302513 3.549891 0.019768
v 0.302513 3.725023 -0.019768
v 0.302513 3.725023 0.019768
v -0.302513 3.549891 -0.019768
v -0.302513 3.549891 0.019768
v -0.302513 3.725023 0.019768
v -0.302513 3.725023 -0.019768
v 0.363277 3.598096 0.000000
v 0.363277 3.773226 -0.000000
v -0.363277 3.598096 0.000000
v -0.363277 3.773226 -0.000000
v -0.079609 3.642711 0.032459
v 0.079609 3.642711 0.032459
v -0.079609 6.369150 0.032459
v 0.079609 6.369150 0.032459
v -0.079609 6.369150 -0.032459
v 0.079609 6.369150 -0.032459
v -0.079609 3.642711 -0.032459
v 0.079609 3.642711 -0.032459
v 0.111669 3.642711 0.000000
v 0.111669 6.369150 0.000000
v -0.111669 3.642711 0.000000
v -0.111669 6.369150 0.000000
v 0.000001 6.447426 -0.000010
v 0.036583 2.904722 -0.016288
v 0.026795 2.904722 -0.029759
v 0.012375 2.904722 -0.038085
v -0.004186 2.904722 -0.039826
v -0.020023 2.904722 -0.034680
v -0.032397 2.904722 -0.023538
v -0.039170 2.904722 -0.008326
v -0.039170 2.904722 0.008326
v -0.032397 2.904722 0.023538
v -0.020023 2.904722 0.034680
v -0.004186 2.904722 0.039826
v 0.012375 2.904722 0.038085
v 0.026795 2.904722 0.029759
v 0.036583 2.904722 0.016288
v 0.040045 2.904722 0.000000
v 0.036583 3.467575 -0.016288
v 0.026795 3.467575 -0.029759
v 0.012375 3.467575 -0.038085
v -0.004186 3.467575 -0.039826
v -0.020023 3.467575 -0.034680
v -0.032397 3.467575 -0.023538
v -0.039170 3.467575 -0.008326
v -0.039170 3.467575 0.008326
v -0.032397 3.467575 0.023538
v -0.020023 3.467575 0.034680
v -0.004186 3.467575 0.039826
v 0.012375 3.467575 0.038085
v 0.026795 3.467575 0.029759
v 0.036583 3.467575 0.016288
v 0.040045 3.467575 0.000000
v 0.000000 2.904722 0.000000
vt 0.151431 0.859140
vt 0.253065 0.860872
vt 0.252024 0.921942
vt 0.259720 0.752071
vt 0.150973 0.722784
vt 0.258557 0.719000
vt 0.241164 0.951240
vt 0.148699 0.658138
vt 0.256284 0.654355
vt 0.151964 0.827898
vt 0.253598 0.829630
vt 0.271619 0.835731
vt 0.316128 0.879427
vt 0.307941 0.890521
vt 0.302107 0.964521
vt 0.091162 0.690585
vt 0.306900 0.951592
vt 0.133745 0.833380
vt 0.095577 0.886901
vt 0.087772 0.875533
vt 0.094536 0.947971
vt 0.150390 0.920210
vt 0.318232 0.747324
vt 0.315958 0.682679
vt 0.318851 0.882090
vt 0.329937 0.907710
vt 0.070475 0.773853
vt 0.068201 0.709207
vt 0.301355 0.964216
vt 0.328895 0.968781
vt 0.084960 0.878102
vt 0.073008 0.903330
vt 0.071967 0.964400
vt 0.099646 0.960777
vt 0.340171 0.699643
vt 0.342444 0.764288
vt 0.722953 0.004271
vt 0.778792 0.004604
vt 0.773079 0.960792
vt 0.717240 0.960458
vt 0.860919 0.961317
vt 0.805080 0.960983
vt 0.810793 0.004795
vt 0.866632 0.005129
vt 0.789079 0.960888
vt 0.794793 0.004700
vt 0.701239 0.960363
vt 0.706953 0.004175
vt 0.685239 0.960267
vt 0.690953 0.004079
vt 0.744982 0.990345
vt 0.832821 0.990867
vt 0.761327 0.999840
vt 0.816369 1.000165
vt 0.673482 0.999312
vt 0.728524 0.999644
vt 0.183525 0.255221
vt 0.189065 0.255210
vt 0.189463 0.442487
vt 0.183922 0.442498
vt 0.194606 0.255198
vt 0.195003 0.442475
vt 0.111499 0.255374
vt 0.117039 0.255362
vt 0.117437 0.442639
vt 0.111896 0.442651
vt 0.122580 0.255351
vt 0.122977 0.442628
vt 0.128120 0.255339
vt 0.128517 0.442616
vt 0.133661 0.255327
vt 0.134058 0.442604
vt 0.139201 0.255315
vt 0.139598 0.442592
vt 0.144742 0.255304
vt 0.145139 0.442581
vt 0.150282 0.255292
vt 0.150679 0.442569
vt 0.155823 0.255280
vt 0.156220 0.442557
vt 0.161363 0.255268
vt 0.161760 0.442545
vt 0.166903 0.255257
vt 0.167301 0.442534
vt 0.172444 0.255245
vt 0.172841 0.442522
vt 0.177984 0.255233
vt 0.178382 0.442510
vt 0.131952 0.546288
vt 0.126825 0.539868
vt 0.144490 0.531017
vt 0.139247 0.550067
vt 0.147449 0.550552
vt 0.155139 0.547660
vt 0.160987 0.541889
vt 0.163983 0.534239
vt 0.163608 0.526032
vt 0.159928 0.518687
vt 0.153578 0.513473
vt 0.145657 0.511294
vt 0.137534 0.512524
vt 0.130613 0.516952
vt 0.126092 0.523812
vt 0.124752 0.531918
vt 0.152136 0.755855
vt 0.160245 0.949862
vt 0.098885 0.961056
vt 0.093436 0.755230
vn -0.043423 0.000000 0.999057
vn 0.043423 0.000000 0.999057
vn 0.065686 0.000000 0.997840
vn -0.065686 0.000000 0.997840
vn 0.135716 0.990748 0.000000
vn -0.135716 0.990748 0.000000
vn -0.135716 0.990748 0.000000
vn 0.135716 0.990748 0.000000
vn -0.065686 0.000000 -0.997840
vn 0.065686 0.000000 -0.997840
vn 0.043423 0.000000 -0.999057
vn -0.043423 0.000000 -0.999057
vn -0.135716 -0.990748 0.000000
vn 0.135716 -0.990748 0.000000
vn 0.135716 -0.990748 0.000000
vn -0.135716 -0.990748 0.000000
vn 0.480267 -0.877123 0.000000
vn 0.480267 -0.877123 0.000000
vn 0.157641 0.000000 -0.987497
vn 0.157641 0.000000 -0.987497
vn -0.480266 0.877123 0.000000
vn -0.480266 0.877123 0.000000
vn 0.157641 0.000000 0.987497
vn 0.157641 0.000000 0.987497
vn -0.480267 -0.877123 0.000000
vn -0.480267 -0.877123 0.000000
vn -0.157641 0.000000 0.987497
vn -0.157641 0.000000 0.987497
vn 0.480266 0.877123 0.000000
vn 0.480266 0.877123 0.000000
vn -0.157641 0.000000 -0.987497
vn -0.157641 0.000000 -0.987497
vn 0.621486 -0.783426 0.000000
vn 0.309359 -0.000001 -0.950945
vn 0.309359 -0.000001 -0.950945
vn 0.309359 -0.000001 -0.950945
vn 0.309359 -0.000001 -0.950945
vn -0.621482 0.783429 0.000000
vn 0.309358 0.000001 0.950946
vn 0.309358 0.000001 0.950946
vn 0.309358 0.000001 0.950946
vn 0.309358 0.000001 0.950946
vn -0.621486 -0.783426 0.000000
vn -0.309357 0.000001 0.950946
vn -0.309358 0.000001 0.950946
vn -0.309357 0.000001 0.950946
vn -0.309357 0.000001 0.950946
vn 0.621482 0.783429 0.000000
vn -0.309359 -0.000001 -0.950945
vn -0.309359 -0.000001 -0.950945
vn -0.309359 -0.000001 -0.950945
vn -0.309359 -0.000001 -0.950945
vn 0.000000 -0.000000 1.000000
vn 0.000000 -0.000000 1.000000
vn 0.000000 -0.000000 1.000000
vn 0.000000 -0.000000 1.000000
vn 0.000000 -0.000000 -1.000000
vn 0.000000 -0.000000 -1.000000
vn 0.000000 -0.000000 -1.000000
vn 0.000000 -0.000000 -1.000000
vn 0.711464 0.000000 -0.702723
vn 0.711464 0.000000 -0.702723
vn 0.711464 0.000000 -0.702723
vn 0.711464 0.000000 -0.702723
vn 0.711464 0.000000 0.702723
vn 0.711464 0.000000 0.702723
vn 0.711464 0.000000 0.702723
vn 0.711464 0.000000 0.702723
vn -0.711464 0.000000 0.702723
vn -0.711464 0.000000 0.702723
vn -0.711464 0.000000 0.702723
vn -0.711464 0.000000 0.702723
vn -0.711464 0.000000 -0.702723
vn -0.711464 0.000000 -0.702723
vn -0.711464 0.000000 -0.702723
vn -0.711464 0.000000 -0.702723
vn 0.000000 0.383155 0.923684
vn 0.000000 0.383155 0.923684
vn 0.000000 0.383155 0.923684
vn 0.000000 0.382942 -0.923772
vn 0.000000 0.382942 -0.923772
vn 0.000000 0.382942 -0.923772
vn 0.499309 0.712379 0.493161
vn 0.499309 0.712379 0.493160
vn 0.499309 0.712379 0.493160
vn 0.499355 0.712315 -0.493206
vn 0.499355 0.712315 -0.493206
vn 0.499355 0.712315 -0.493206
vn -0.499351 0.712321 -0.493202
vn -0.499351 0.712320 -0.493202
vn -0.499351 0.712321 -0.493202
vn -0.499299 0.712376 0.493174
vn -0.499299 0.712376 0.493174
vn -0.499299 0.712376 0.493174
vn 0.000000 -0.000000 1.000000
vn 0.000000 -0.000000 1.000000
vn 0.000000 -0.000000 1.000000
vn 0.000000 -0.000000 1.000000
vn 0.000000 -0.000000 -1.000000
vn 0.000000 -0.000000 -1.000000
vn 0.000000 -0.000000 -1.000000
vn 0.000000 -0.000000 -1.000000
vn 0.711464 0.000000 -0.702723
vn 0.711464 0.000000 -0.702723
vn 0.711464 0.000000 -0.702723
vn 0.711464 0.000000 -0.702723
vn 0.711464 0.000000 0.702723
vn 0.711464 0.000000 0.702723
vn 0.711464 0.000000 0.702723
vn 0.711464 0.000000 0.702723
vn -0.711464 0.000000 0.702723
vn -0.711464 0.000000 0.702723
vn -0.711464 0.000000 0.702723
vn -0.711464 0.000000 0.702723
vn -0.711464 0.000000 -0.702723
vn -0.711464 0.000000 -0.702723
vn -0.711464 0.000000 -0.702723
vn -0.711464 0.000000 -0.702723
vn 0.000000 0.383155 0.923684
vn 0.000000 0.383155 0.923684
vn 0.000000 0.383155 0.923684
vn 0.000000 0.382942 -0.923772
vn 0.000000 0.382942 -0.923772
vn 0.000000 0.382942 -0.923772
vn 0.499309 0.712379 0.493161
vn 0.499309 0.712379 0.493160
vn 0.499309 0.712379 0.493160
vn 0.499355 0.712315 -0.493206
vn 0.499355 0.712315 -0.493206
vn 0.499355 0.712315 -0.493206
vn -0.499351 0.712321 -0.493202
vn -0.499351 0.712320 -0.493202
vn -0.499351 0.712321 -0.493202
vn -0.499299 0.712376 0.493174
vn -0.499299 0.712376 0.493174
vn -0.499299 0.712376 0.493174
vn 0.913545 0.000000 -0.406737
vn 0.669131 0.000000 -0.743145
vn 0.669131 0.000000 -0.743145
vn 0.913545 0.000000 -0.406737
vn 0.309017 0.000000 -0.951057
vn 0.309017 0.000000 -0.951057
vn -0.104528 0.000000 -0.994522
vn -0.104528 0.000000 -0.994522
vn -0.500000 0.000000 -0.866026
vn -0.500000 0.000000 -0.866026
vn -0.809017 0.000000 -0.587785
vn -0.809017 0.000000 -0.587785
vn -0.978148 0.000000 -0.207912
vn -0.978148 0.000000 -0.207912
vn -0.978148 0.000000 0.207912
vn -0.978148 0.000000 0.207912
vn -0.809017 0.000000 0.587785
vn -0.809017 0.000000 0.587785
vn -0.500000 0.000000 0.866025
vn -0.500000 0.000000 0.866025
vn -0.104528 0.000000 0.994522
vn -0.104528 0.000000 0.994522
vn 0.309017 0.000000 0.951057
vn 0.309017 0.000000 0.951057
vn 0.669131 0.000000 0.743145
vn 0.669131 0.000000 0.743145
vn 0.913546 0.000000 0.406737
vn 0.913546 0.000000 0.406737
vn 1.000000 0.000000 -0.000000
vn 1.000000 0.000000 -0.000000
vn 0.000000 -1.000000 -0.000006
vn 0.000000 -1.000000 0.000000
vn 0.000000 -1.000000 -0.000001
vn 0.000000 -1.000000 -0.000006
vn 0.000000 -1.000000 0.000000
vn 0.000000 -1.000000 0.000000
vn 0.000000 -1.000000 0.000000
vn 0.000000 -1.000000 0.000000
vn 0.000000 -1.000000 0.000000
vn 0.000000 -1.000000 0.000000
vn 0.000000 -1.000000 0.000001
vn 0.000000 -1.000000 0.000001
vn 0.000000 -1.000000 0.000000
vn 0.000000 -1.000000 0.000000
vn 0.000000 -1.000000 0.000000
vn 0.000000 -1.000000 0.000000
s 1
g SwordMesh
usemtl blinn2SG
f 1/1/1 2/2/2 4/3/3 3/22/4
s 2
f 3/4/5 4/105/6 6/5/7 5/6/8
s 3
f 5/6/9 6/5/10 8/8/11 7/9/12
s 4
f 7/10/13 8/11/14 2/2/15 1/1/16
f 2/2/15 8/12/14 9/13/17 10/14/18
s 3
f 8/8/11 6/5/10 11/108/19 9/16/20
s 2
f 6/7/7 4/3/6 12/17/21 11/15/22
s 1
f 4/3/3 2/2/2 10/14/23 12/17/24
s 4
f 7/18/13 1/1/16 14/19/25 13/20/26
s 1
f 1/1/1 3/22/4 15/21/27 14/19/28
s 2
f 3/22/5 5/106/8 16/107/29 15/21/30
s 3
f 5/6/9 7/9/12 13/24/31 16/23/32
s 4
f 10/14/18 9/25/17 17/26/33
s off
f 9/16/34 11/108/35 18/27/36 17/28/37
s 2
f 11/29/22 12/17/21 18/30/38
s off
f 12/17/39 10/14/40 17/26/41 18/30/42
s 4
f 13/31/26 14/19/25 19/32/43
s off
f 14/19/44 15/21/45 20/33/46 19/32/47
s 2
f 15/21/30 16/34/29 20/33/48
s off
f 16/23/49 13/24/50 19/35/51 20/36/52
usemtl blinn1SG
f 21//53 22//54 24//55 23//56
f 25//57 26//58 28//59 27//60
f 28//61 26//62 30//63 29//64
f 24//65 22//66 29//67 30//68
f 21//69 23//70 32//71 31//72
f 25//73 27//74 31//75 32//76
f 23//77 24//78 33//79
f 26//80 25//81 33//82
f 24//83 30//84 33//85
f 30//86 26//87 33//88
f 25//89 32//90 33//91
f 32//92 23//93 33//94
f 21/37/95 22/38/96 24/39/97 23/40/98
f 25/41/99 26/42/100 28/43/101 27/44/102
f 28/43/103 26/42/104 30/45/105 29/46/106
f 24/39/107 22/38/108 29/46/109 30/45/110
f 21/37/111 23/40/112 32/47/113 31/48/114
f 25/49/115 27/50/116 31/48/117 32/47/118
f 23/40/119 24/39/120 33/51/121
f 26/42/122 25/41/123 33/52/124
f 24/39/125 30/45/126 33/53/127
f 30/45/128 26/42/129 33/54/130
f 25/49/131 32/47/132 33/55/133
f 32/47/134 23/40/135 33/56/136
s 5
usemtl lambert3SG
f 34/57/137 35/58/138 50/59/139 49/60/140
f 35/58/138 36/61/141 51/62/142 50/59/139
f 36/63/141 37/64/143 52/65/144 51/66/142
f 37/64/143 38/67/145 53/68/146 52/65/144
f 38/67/145 39/69/147 54/70/148 53/68/146
f 39/69/147 40/71/149 55/72/150 54/70/148
f 40/71/149 41/73/151 56/74/152 55/72/150
f 41/73/151 42/75/153 57/76/154 56/74/152
f 42/75/153 43/77/155 58/78/156 57/76/154
f 43/77/155 44/79/157 59/80/158 58/78/156
f 44/79/157 45/81/159 60/82/160 59/80/158
f 45/81/159 46/83/161 61/84/162 60/82/160
f 46/83/161 47/85/163 62/86/164 61/84/162
f 47/85/163 48/87/165 63/88/166 62/86/164
f 48/87/165 34/57/137 49/60/140 63/88/166
s 6
f 35/89/167 34/90/168 64/91/169
f 36/92/170 35/89/167 64/91/169
f 37/93/171 36/92/170 64/91/169
f 38/94/172 37/93/171 64/91/169
f 39/95/173 38/94/172 64/91/169
f 40/96/174 39/95/173 64/91/169
f 41/97/175 40/96/174 64/91/169
f 42/98/176 41/97/175 64/91/169
f 43/99/177 42/98/176 64/91/169
f 44/100/178 43/99/177 64/91/169
f 45/101/179 44/100/178 64/91/169
f 46/102/180 45/101/179 64/91/169
f 47/103/181 46/102/180 64/91/169
f 48/104/182 47/103/181 64/91/169
f 34/90/168 48/104/182 64/91/169
